<?xml version="1.0" standalone="no"?>
<!DOCTYPE svg PUBLIC "-//W3C//DTD SVG 20010904//EN"
 "http://www.w3.org/TR/2001/REC-SVG-20010904/DTD/svg10.dtd">
<svg version="1.0" xmlns="http://www.w3.org/2000/svg"
 width="417.000000pt" height="350.000000pt" viewBox="0 0 417.000000 350.000000"
 preserveAspectRatio="xMidYMid meet">
<metadata>
Created by potrace 1.16, written by Peter Selinger 2001-2019
</metadata>
<g transform="translate(0.000000,350.000000) scale(0.100000,-0.100000)"
fill="#000000" stroke="none">
<path d="M2243 2490 l187 -5 -170 -260 c-93 -143 -202 -311 -242 -374 -40 -63
-76 -119 -80 -125 -6 -8 -11 -6 -18 4 -9 12 -10 10 -8 -10 2 -14 9 -25 18 -25
8 0 14 6 12 13 -1 6 3 12 9 12 5 0 7 5 4 10 -3 6 1 13 9 16 9 3 14 10 11 14
-3 5 2 13 11 18 9 5 15 12 15 15 -3 21 0 27 9 22 6 -4 10 -3 9 2 -4 21 2 34
13 27 7 -4 8 -3 4 4 -4 7 -2 12 4 12 6 0 8 5 5 10 -3 6 1 13 9 16 9 3 13 10
10 15 -3 5 2 12 10 15 9 3 13 10 10 15 -3 5 2 12 10 15 9 3 14 10 11 14 -3 5
2 13 11 18 9 5 15 12 15 15 -3 21 0 27 11 21 7 -4 8 -3 4 4 -4 7 5 23 20 37
15 14 23 25 18 25 -5 0 -1 5 9 11 9 6 15 14 12 20 -4 5 -1 9 5 9 6 0 8 5 5 10
-3 6 1 13 9 16 9 3 14 10 11 14 -3 5 2 13 11 18 9 5 15 12 15 15 -3 21 0 27 9
22 6 -4 10 -3 9 2 -4 21 2 34 13 27 7 -4 8 -3 4 4 -4 6 2 20 13 31 11 11 17
22 14 24 -2 3 5 10 16 17 12 6 19 15 16 21 -4 5 -1 9 5 9 6 0 8 5 5 10 -3 6 1
13 9 16 9 3 14 10 11 14 -3 5 3 13 12 19 10 6 14 11 10 11 -5 0 0 13 9 29 10
17 22 27 27 24 6 -3 7 -1 3 5 -3 5 0 13 6 15 7 3 -79 5 -192 4 l-205 -1 188
-6z"/>
</g>
</svg>
